<svg xmlns="http://www.w3.org/2000/svg" width="559" height="432" viewBox="0 0 559 432">
<g>
<path d="M 66.60 397.00 L 65.44 401.50 L 57.97 401.69 C53.86,401.80 49.94,401.65 49.25,401.36 C48.27,400.95 48.00,390.12 48.00,351.99 L 48.00 303.14 L 53.75 302.48 C63.46,301.35 71.09,299.04 80.92,294.25 C88.61,290.50 91.82,288.18 98.42,281.58 C107.60,272.40 112.85,264.07 116.74,252.50 C119.18,245.26 119.44,243.12 119.42,230.00 C119.41,217.38 119.10,214.66 117.08,209.00 C109.57,188.01 95.00,171.94 76.15,163.85 C70.14,161.27 56.55,158.02 51.75,158.01 L 48.00 158.00 L 48.00 58.00 L 65.86 58.00 L 66.86 63.25 C70.86,84.17 71.94,90.07 72.55,94.28 C73.31,99.61 73.96,100.14 81.86,101.99 C82.37,102.11 82.83,102.23 83.24,102.35 C84.33,102.63 85.14,102.85 85.92,102.78 C88.55,102.53 90.88,99.04 102.18,84.16 C107.75,76.82 112.97,70.56 113.79,70.25 C116.14,69.35 132.00,77.65 132.00,79.79 C132.00,80.78 129.98,88.77 127.50,97.54 C127.13,98.86 126.78,100.09 126.45,101.25 C122.71,114.46 121.72,117.97 123.01,120.12 C123.58,121.08 124.62,121.77 126.08,122.94 C129.76,125.90 130.63,126.20 133.00,125.30 C135.31,124.43 150.75,114.78 159.00,109.05 C160.38,108.09 162.90,106.58 164.62,105.70 L 167.74 104.08 L 182.20 118.99 L 178.42 124.24 C165.48,142.23 158.00,153.32 158.00,154.51 C158.00,155.27 158.97,157.53 160.15,159.53 C162.04,162.73 162.69,163.13 165.40,162.73 C169.66,162.10 196.76,156.25 200.74,155.09 C203.53,154.28 204.20,154.44 205.49,156.29 C206.32,157.48 207.00,158.98 207.00,159.62 C207.00,160.27 208.12,163.21 209.49,166.15 C210.86,169.09 211.98,172.22 211.99,173.10 C212.00,173.99 209.62,176.24 206.72,178.10 C203.81,179.97 196.01,185.23 189.37,189.79 L 177.30 198.07 L 177.78 203.29 C178.04,206.15 178.62,209.21 179.07,210.07 C179.81,211.52 190.04,213.77 216.25,218.29 L 222.00 219.28 L 222.00 240.56 L 201.36 244.49 C190.01,246.65 180.17,248.97 179.50,249.65 C177.88,251.27 176.59,262.80 177.86,264.33 C178.39,264.97 186.05,270.45 194.87,276.50 C203.69,282.55 210.93,287.93 210.95,288.46 C210.98,288.99 209.34,293.42 207.32,298.30 L 203.64 307.18 L 200.07 306.74 C198.11,306.49 189.55,304.66 181.06,302.65 C172.56,300.64 164.61,299.00 163.39,299.00 C161.10,299.00 157.00,304.28 157.00,307.23 C157.00,308.06 161.77,315.43 167.60,323.61 C173.43,331.80 178.65,339.34 179.20,340.37 C180.04,341.95 179.06,343.40 172.96,349.54 L 165.71 356.84 L 161.60 354.27 C159.35,352.86 152.43,348.39 146.24,344.33 L 145.24 343.67 C135.04,336.98 132.03,335.01 129.55,335.54 C128.43,335.77 127.42,336.52 125.91,337.56 C123.63,339.14 121.59,340.91 121.36,341.50 C121.13,342.09 123.21,350.43 125.96,360.04 C128.72,369.64 130.98,378.41 130.99,379.53 C131.00,381.08 128.98,382.56 122.34,385.85 L 113.69 390.14 L 111.38 387.82 C110.11,386.54 104.41,379.42 98.72,372.00 C87.36,357.20 87.12,357.05 78.54,359.24 L 73.58 360.50 L 72.45 366.50 C71.83,369.80 70.53,377.00 69.55,382.50 C68.57,388.00 67.24,394.52 66.60,397.00 ZM 481.00 41.30 C481.00,45.70 480.66,47.00 479.50,47.00 C478.28,47.00 478.00,45.33 478.00,38.00 C478.00,33.05 478.37,29.00 478.83,29.00 C479.29,29.00 481.11,30.80 482.88,33.00 C484.65,35.20 486.67,37.00 487.38,37.00 C488.09,37.00 490.11,35.20 491.88,33.00 C493.65,30.80 495.52,29.00 496.05,29.00 C496.58,29.00 497.00,32.96 497.00,38.00 C497.00,45.33 496.72,47.00 495.50,47.00 C494.35,47.00 494.00,45.72 494.00,41.50 C494.00,38.47 493.56,36.00 493.03,36.00 C492.50,36.00 491.06,37.35 489.84,39.01 L 487.61 42.02 L 484.31 38.81 L 481.00 35.61 ZM 467.21 39.25 C466.98,45.24 466.58,47.00 465.46,47.00 C464.30,47.00 464.00,45.34 464.00,39.00 L 464.00 31.00 L 461.00 31.00 C458.00,28.29 459.56,28.00 466.00,28.00 C472.29,28.00 474.00,28.31 474.00,29.44 C474.00,30.33 472.76,30.99 470.75,31.19 L 467.50 31.50 Z" fill="rgb(33,114,182)"/>
<path d="M 495.17 108.35 C493.49,109.86 484.92,109.99 390.92,109.88 C334.59,109.82 287.15,109.47 285.50,109.12 L 282.50 108.48 L 282.23 86.06 C282.02,68.79 282.25,63.46 283.23,62.84 C283.93,62.39 331.85,62.02 389.71,62.02 C492.72,62.00 494.95,62.04 495.96,63.93 C496.58,65.09 497.00,74.12 497.00,86.28 C497.00,104.78 496.83,106.84 495.17,108.35 ZM 495.67 255.67 C495.21,256.13 447.46,256.62 389.55,256.76 C300.68,256.99 284.09,256.81 283.11,255.64 C282.30,254.66 282.04,247.66 282.23,231.87 L 282.50 209.50 L 388.39 209.25 C468.14,209.05 494.63,209.28 495.69,210.16 C496.85,211.12 497.05,215.31 496.80,233.09 C496.64,245.05 496.13,255.21 495.67,255.67 ZM 495.35 400.13 C493.97,401.27 476.22,401.53 390.10,401.70 C328.58,401.82 285.58,401.52 284.23,400.97 L 281.96 400.05 L 282.23 377.28 L 282.50 354.50 L 388.94 354.25 C473.43,354.04 495.54,354.25 496.17,355.25 C496.61,355.94 496.98,366.01 496.98,377.63 C497.00,396.07 496.79,398.93 495.35,400.13 ZM 60.19 279.01 C57.82,279.61 55.34,280.28 54.69,280.49 C53.05,281.01 48.99,278.94 49.03,277.60 C49.05,276.99 48.80,255.08 48.49,228.91 C48.46,226.93 48.44,225.03 48.42,223.21 C47.98,186.96 47.90,181.02 50.49,179.45 C51.13,179.06 51.93,178.94 52.92,178.69 C55.23,178.13 63.95,179.83 65.00,181.05 C65.28,181.37 67.97,182.85 71.00,184.34 C80.84,189.18 90.93,200.86 94.63,211.69 C95.79,215.09 96.30,220.32 96.38,229.50 C96.49,241.32 96.29,242.86 94.22,246.50 C92.97,248.70 91.62,251.72 91.22,253.21 C90.01,257.79 83.09,266.26 76.64,271.09 C70.32,275.81 67.61,277.11 60.19,279.01 Z" fill="rgb(145,204,14)"/>
<path d="M 60.19 279.01 C67.61,277.11 70.32,275.81 76.64,271.09 C83.09,266.26 90.01,257.79 91.22,253.21 C91.62,251.72 92.97,248.70 94.22,246.50 C96.29,242.86 96.49,241.32 96.38,229.50 C96.31,221.21 95.88,216.15 94.95,212.74 C95.01,212.92 95.07,213.10 95.13,213.28 C99.48,226.66 98.60,241.01 92.64,253.50 C86.56,266.26 76.67,274.94 62.92,279.59 C59.01,280.92 54.16,282.00 52.15,282.00 L 48.50 282.00 L 48.24 229.39 L 47.97 176.78 L 51.24 177.24 C53.79,177.60 58.04,178.64 61.16,179.57 C58.16,178.85 54.34,178.35 52.92,178.69 C51.93,178.94 51.13,179.06 50.49,179.45 C47.90,181.02 47.98,186.96 48.42,223.21 C48.44,225.03 48.46,226.93 48.49,228.91 C48.80,255.08 49.05,276.99 49.03,277.60 C48.99,278.94 53.05,281.01 54.69,280.49 C55.34,280.28 57.82,279.61 60.19,279.01 ZM 86.40 197.31 C81.93,191.77 76.43,187.01 71.00,184.34 C76.59,187.09 81.99,191.73 86.40,197.31 Z" fill="rgb(162,190,106)"/>
<path d="M 0.00 216.00 L 0.00 0.00 L 279.50 0.00 L 559.00 0.00 L 559.00 216.00 L 559.00 432.00 L 279.50 432.00 L 0.00 432.00 L 0.00 216.00 ZM 66.60 397.00 C67.24,394.52 68.57,388.00 69.55,382.50 C70.53,377.00 71.83,369.80 72.45,366.50 L 73.58 360.50 L 78.54 359.24 C87.12,357.05 87.36,357.20 98.72,372.00 C104.41,379.42 110.11,386.54 111.38,387.82 L 113.69 390.14 L 122.34 385.85 C128.98,382.56 131.00,381.08 130.99,379.53 C130.98,378.41 128.72,369.64 125.96,360.04 C123.21,350.43 121.13,342.09 121.36,341.50 C121.59,340.91 123.63,339.14 125.91,337.56 C130.89,334.11 130.43,333.96 146.24,344.33 C152.43,348.39 159.35,352.86 161.60,354.27 L 165.71 356.84 L 172.96 349.54 C179.06,343.40 180.04,341.95 179.20,340.37 C178.65,339.34 173.43,331.80 167.60,323.61 C161.77,315.43 157.00,308.06 157.00,307.23 C157.00,304.28 161.10,299.00 163.39,299.00 C164.61,299.00 172.56,300.64 181.06,302.65 C189.55,304.66 198.11,306.49 200.07,306.74 L 203.64 307.18 L 207.32 298.30 C209.34,293.42 210.98,288.99 210.95,288.46 C210.93,287.93 203.69,282.55 194.87,276.50 C186.05,270.45 178.39,264.97 177.86,264.33 C176.59,262.80 177.88,251.27 179.50,249.65 C180.17,248.97 190.01,246.65 201.36,244.49 L 222.00 240.56 L 222.00 229.92 L 222.00 219.28 L 216.25 218.29 C190.04,213.77 179.81,211.52 179.07,210.07 C178.62,209.21 178.04,206.15 177.78,203.29 L 177.30 198.07 L 189.37 189.79 C196.01,185.23 203.81,179.97 206.72,178.10 C209.62,176.24 212.00,173.99 211.99,173.10 C211.98,172.22 210.86,169.09 209.49,166.15 C208.12,163.21 207.00,160.27 207.00,159.62 C207.00,158.98 206.32,157.48 205.49,156.29 C204.20,154.44 203.53,154.28 200.74,155.09 C196.76,156.25 169.66,162.10 165.40,162.73 C162.69,163.13 162.04,162.73 160.15,159.53 C158.97,157.53 158.00,155.27 158.00,154.51 C158.00,153.32 165.48,142.23 178.42,124.24 L 182.20 118.99 L 174.97 111.54 L 167.74 104.08 L 164.62 105.70 C162.90,106.58 160.38,108.09 159.00,109.05 C150.75,114.78 135.31,124.43 133.00,125.30 C130.63,126.20 129.76,125.90 126.08,122.94 C121.10,118.94 121.01,120.57 127.50,97.54 C129.98,88.77 132.00,80.78 132.00,79.79 C132.00,77.65 116.14,69.35 113.79,70.25 C112.97,70.56 107.75,76.82 102.18,84.16 C86.22,105.18 88.16,103.47 81.86,101.99 C73.96,100.14 73.31,99.61 72.55,94.28 C71.94,90.07 70.86,84.17 66.86,63.25 L 65.86 58.00 L 56.93 58.00 L 48.00 58.00 L 48.00 108.00 L 48.00 158.00 L 51.75 158.01 C56.55,158.02 70.14,161.27 76.15,163.85 C95.00,171.94 109.57,188.01 117.08,209.00 C119.10,214.66 119.41,217.38 119.42,230.00 C119.44,243.12 119.18,245.26 116.74,252.50 C112.85,264.07 107.60,272.40 98.42,281.58 C91.82,288.18 88.61,290.50 80.92,294.25 C71.09,299.04 63.46,301.35 53.75,302.48 L 48.00 303.14 L 48.00 351.99 C48.00,390.12 48.27,400.95 49.25,401.36 C49.94,401.65 53.86,401.80 57.97,401.69 L 65.44 401.50 L 66.60 397.00 ZM 495.35 400.13 C496.79,398.93 497.00,396.07 496.98,377.63 C496.98,366.01 496.61,355.94 496.17,355.25 C495.54,354.25 473.43,354.04 388.94,354.25 L 282.50 354.50 L 282.23 377.28 L 281.96 400.05 L 284.23 400.97 C285.58,401.52 328.58,401.82 390.10,401.70 C476.22,401.53 493.97,401.27 495.35,400.13 ZM 62.92 279.59 C76.67,274.94 86.56,266.26 92.64,253.50 C98.60,241.01 99.48,226.66 95.13,213.28 C91.19,201.18 81.43,189.47 71.00,184.34 C67.97,182.85 65.28,181.37 65.00,181.05 C64.36,180.30 55.47,177.84 51.24,177.24 L 47.97 176.78 L 48.24 229.39 L 48.50 282.00 L 52.15 282.00 C54.16,282.00 59.01,280.92 62.92,279.59 ZM 495.67 255.67 C496.13,255.21 496.64,245.05 496.80,233.09 C497.05,215.31 496.85,211.12 495.69,210.16 C494.63,209.28 468.14,209.05 388.39,209.25 L 282.50 209.50 L 282.23 231.87 C282.04,247.66 282.30,254.66 283.11,255.64 C284.09,256.81 300.68,256.99 389.55,256.76 C447.46,256.62 495.21,256.13 495.67,255.67 ZM 495.17 108.35 C496.83,106.84 497.00,104.78 497.00,86.28 C497.00,74.12 496.58,65.09 495.96,63.93 C494.95,62.04 492.72,62.00 389.71,62.02 C331.85,62.02 283.93,62.39 283.23,62.84 C282.25,63.46 282.02,68.79 282.23,86.06 L 282.50 108.48 L 285.50 109.12 C287.15,109.47 334.59,109.82 390.92,109.88 C484.92,109.99 493.49,109.86 495.17,108.35 ZM 467.21 39.25 L 467.50 31.50 L 470.75 31.19 C472.76,30.99 474.00,30.33 474.00,29.44 C474.00,28.31 472.29,28.00 466.00,28.00 C459.56,28.00 458.00,28.29 458.00,29.50 C458.00,30.50 459.00,31.00 461.00,31.00 L 464.00 31.00 L 464.00 39.00 C464.00,45.34 464.30,47.00 465.46,47.00 C466.58,47.00 466.98,45.24 467.21,39.25 ZM 481.00 41.30 L 481.00 35.61 L 484.31 38.81 L 487.61 42.02 L 489.84 39.01 C491.06,37.35 492.50,36.00 493.03,36.00 C493.56,36.00 494.00,38.47 494.00,41.50 C494.00,45.72 494.35,47.00 495.50,47.00 C496.72,47.00 497.00,45.33 497.00,38.00 C497.00,32.96 496.58,29.00 496.05,29.00 C495.52,29.00 493.65,30.80 491.88,33.00 C490.11,35.20 488.09,37.00 487.38,37.00 C486.67,37.00 484.65,35.20 482.88,33.00 C481.11,30.80 479.29,29.00 478.83,29.00 C478.37,29.00 478.00,33.05 478.00,38.00 C478.00,45.33 478.28,47.00 479.50,47.00 C480.66,47.00 481.00,45.70 481.00,41.30 Z" fill="rgb(246,246,246)"/>
</g>
</svg>